<mxfile host="app.diagrams.net" modified="2022-10-11T09:15:38.393Z" agent="5.0 (Windows NT 10.0; Win64; x64) AppleWebKit/537.36 (KHTML, like Gecko) Chrome/105.0.0.0 Safari/537.36" etag="OBwSUHiQ-otEy7zNAWbr" version="20.4.0" type="github">
  <diagram id="R2lEEEUBdFMjLlhIrx00" name="Page-1">
    <mxGraphModel dx="1822" dy="1194" grid="1" gridSize="10" guides="1" tooltips="1" connect="1" arrows="1" fold="1" page="0" pageScale="1" pageWidth="850" pageHeight="1100" math="0" shadow="0" extFonts="Permanent Marker^https://fonts.googleapis.com/css?family=Permanent+Marker">
      <root>
        <mxCell id="0" />
        <mxCell id="1" parent="0" />
        <mxCell id="M6gMAkujk3P0K6vXCGeZ-2" value="Utas" style="whiteSpace=wrap;html=1;align=center;" vertex="1" parent="1">
          <mxGeometry x="-160" y="190" width="100" height="40" as="geometry" />
        </mxCell>
        <mxCell id="M6gMAkujk3P0K6vXCGeZ-3" value="Bérlet" style="whiteSpace=wrap;html=1;align=center;" vertex="1" parent="1">
          <mxGeometry x="250" y="190" width="100" height="40" as="geometry" />
        </mxCell>
        <mxCell id="M6gMAkujk3P0K6vXCGeZ-4" value="Járművek" style="whiteSpace=wrap;html=1;align=center;" vertex="1" parent="1">
          <mxGeometry x="-160" y="-150" width="100" height="40" as="geometry" />
        </mxCell>
        <mxCell id="M6gMAkujk3P0K6vXCGeZ-5" value="Sofőr" style="whiteSpace=wrap;html=1;align=center;" vertex="1" parent="1">
          <mxGeometry x="350" y="-150" width="100" height="40" as="geometry" />
        </mxCell>
        <mxCell id="M6gMAkujk3P0K6vXCGeZ-6" value="Jogosítvány" style="shape=rhombus;perimeter=rhombusPerimeter;whiteSpace=wrap;html=1;align=center;" vertex="1" parent="1">
          <mxGeometry x="80" y="-160" width="120" height="60" as="geometry" />
        </mxCell>
        <mxCell id="M6gMAkujk3P0K6vXCGeZ-8" value="" style="edgeStyle=entityRelationEdgeStyle;fontSize=12;html=1;endArrow=ERmany;rounded=0;exitX=1;exitY=0.5;exitDx=0;exitDy=0;entryX=0;entryY=0.5;entryDx=0;entryDy=0;" edge="1" parent="1" source="M6gMAkujk3P0K6vXCGeZ-6" target="M6gMAkujk3P0K6vXCGeZ-5">
          <mxGeometry width="100" height="100" relative="1" as="geometry">
            <mxPoint x="370" y="60" as="sourcePoint" />
            <mxPoint x="470" y="-40" as="targetPoint" />
          </mxGeometry>
        </mxCell>
        <mxCell id="M6gMAkujk3P0K6vXCGeZ-11" value="érvényesség" style="ellipse;whiteSpace=wrap;html=1;align=center;" vertex="1" parent="1">
          <mxGeometry x="90" y="-280" width="100" height="40" as="geometry" />
        </mxCell>
        <mxCell id="M6gMAkujk3P0K6vXCGeZ-12" value="" style="endArrow=none;html=1;rounded=0;entryX=0.5;entryY=1;entryDx=0;entryDy=0;exitX=0.5;exitY=0;exitDx=0;exitDy=0;" edge="1" parent="1" source="M6gMAkujk3P0K6vXCGeZ-6" target="M6gMAkujk3P0K6vXCGeZ-11">
          <mxGeometry relative="1" as="geometry">
            <mxPoint x="340" y="10" as="sourcePoint" />
            <mxPoint x="500" y="10" as="targetPoint" />
          </mxGeometry>
        </mxCell>
        <mxCell id="M6gMAkujk3P0K6vXCGeZ-13" value="" style="edgeStyle=entityRelationEdgeStyle;fontSize=12;html=1;endArrow=ERmany;rounded=0;exitX=0;exitY=0.5;exitDx=0;exitDy=0;entryX=1;entryY=0.5;entryDx=0;entryDy=0;" edge="1" parent="1" source="M6gMAkujk3P0K6vXCGeZ-6" target="M6gMAkujk3P0K6vXCGeZ-4">
          <mxGeometry width="100" height="100" relative="1" as="geometry">
            <mxPoint x="370" y="60" as="sourcePoint" />
            <mxPoint x="470" y="-40" as="targetPoint" />
          </mxGeometry>
        </mxCell>
        <mxCell id="M6gMAkujk3P0K6vXCGeZ-14" value="szid" style="ellipse;whiteSpace=wrap;html=1;align=center;fontStyle=4;" vertex="1" parent="1">
          <mxGeometry x="370" y="-280" width="100" height="40" as="geometry" />
        </mxCell>
        <mxCell id="M6gMAkujk3P0K6vXCGeZ-15" value="" style="endArrow=none;html=1;rounded=0;entryX=0.5;entryY=1;entryDx=0;entryDy=0;" edge="1" parent="1" source="M6gMAkujk3P0K6vXCGeZ-5" target="M6gMAkujk3P0K6vXCGeZ-14">
          <mxGeometry relative="1" as="geometry">
            <mxPoint x="340" y="10" as="sourcePoint" />
            <mxPoint x="500" y="10" as="targetPoint" />
          </mxGeometry>
        </mxCell>
        <mxCell id="M6gMAkujk3P0K6vXCGeZ-16" value="Relationship" style="shape=rhombus;perimeter=rhombusPerimeter;whiteSpace=wrap;html=1;align=center;" vertex="1" parent="1">
          <mxGeometry x="10" y="180" width="120" height="60" as="geometry" />
        </mxCell>
        <mxCell id="M6gMAkujk3P0K6vXCGeZ-17" value="" style="edgeStyle=entityRelationEdgeStyle;fontSize=12;html=1;endArrow=ERone;endFill=1;rounded=0;exitX=1;exitY=0.5;exitDx=0;exitDy=0;entryX=0;entryY=0.5;entryDx=0;entryDy=0;" edge="1" parent="1" source="M6gMAkujk3P0K6vXCGeZ-16" target="M6gMAkujk3P0K6vXCGeZ-3">
          <mxGeometry width="100" height="100" relative="1" as="geometry">
            <mxPoint x="160" y="60" as="sourcePoint" />
            <mxPoint x="470" y="60" as="targetPoint" />
          </mxGeometry>
        </mxCell>
        <mxCell id="M6gMAkujk3P0K6vXCGeZ-18" value="" style="edgeStyle=entityRelationEdgeStyle;fontSize=12;html=1;endArrow=ERone;endFill=1;rounded=0;exitX=0;exitY=0.5;exitDx=0;exitDy=0;entryX=1;entryY=0.5;entryDx=0;entryDy=0;" edge="1" parent="1" source="M6gMAkujk3P0K6vXCGeZ-16" target="M6gMAkujk3P0K6vXCGeZ-2">
          <mxGeometry width="100" height="100" relative="1" as="geometry">
            <mxPoint x="370" y="160" as="sourcePoint" />
            <mxPoint x="470" y="60" as="targetPoint" />
          </mxGeometry>
        </mxCell>
        <mxCell id="M6gMAkujk3P0K6vXCGeZ-20" value="bid" style="ellipse;whiteSpace=wrap;html=1;align=center;fontStyle=4;" vertex="1" parent="1">
          <mxGeometry x="70" y="300" width="100" height="40" as="geometry" />
        </mxCell>
        <mxCell id="M6gMAkujk3P0K6vXCGeZ-21" value="" style="endArrow=none;html=1;rounded=0;exitX=0.5;exitY=0;exitDx=0;exitDy=0;entryX=0;entryY=1;entryDx=0;entryDy=0;" edge="1" parent="1" source="M6gMAkujk3P0K6vXCGeZ-20" target="M6gMAkujk3P0K6vXCGeZ-3">
          <mxGeometry relative="1" as="geometry">
            <mxPoint x="340" y="110" as="sourcePoint" />
            <mxPoint x="500" y="110" as="targetPoint" />
          </mxGeometry>
        </mxCell>
        <mxCell id="M6gMAkujk3P0K6vXCGeZ-22" value="érvényesség" style="ellipse;whiteSpace=wrap;html=1;align=center;" vertex="1" parent="1">
          <mxGeometry x="180" y="300" width="100" height="40" as="geometry" />
        </mxCell>
        <mxCell id="M6gMAkujk3P0K6vXCGeZ-24" value="" style="endArrow=none;html=1;rounded=0;exitX=0.25;exitY=1;exitDx=0;exitDy=0;" edge="1" parent="1" source="M6gMAkujk3P0K6vXCGeZ-3" target="M6gMAkujk3P0K6vXCGeZ-22">
          <mxGeometry relative="1" as="geometry">
            <mxPoint x="340" y="110" as="sourcePoint" />
            <mxPoint x="500" y="110" as="targetPoint" />
          </mxGeometry>
        </mxCell>
        <mxCell id="M6gMAkujk3P0K6vXCGeZ-25" value="" style="endArrow=none;html=1;rounded=0;exitX=0.75;exitY=1;exitDx=0;exitDy=0;entryX=0.5;entryY=1;entryDx=0;entryDy=0;" edge="1" parent="1" source="M6gMAkujk3P0K6vXCGeZ-3" target="M6gMAkujk3P0K6vXCGeZ-39">
          <mxGeometry relative="1" as="geometry">
            <mxPoint x="340" y="110" as="sourcePoint" />
            <mxPoint x="330" y="120" as="targetPoint" />
          </mxGeometry>
        </mxCell>
        <mxCell id="M6gMAkujk3P0K6vXCGeZ-26" value="életkor" style="ellipse;whiteSpace=wrap;html=1;align=center;" vertex="1" parent="1">
          <mxGeometry x="-160" y="300" width="100" height="40" as="geometry" />
        </mxCell>
        <mxCell id="M6gMAkujk3P0K6vXCGeZ-27" value="" style="endArrow=none;html=1;rounded=0;exitX=0.5;exitY=1;exitDx=0;exitDy=0;entryX=0.5;entryY=0;entryDx=0;entryDy=0;" edge="1" parent="1" source="M6gMAkujk3P0K6vXCGeZ-2" target="M6gMAkujk3P0K6vXCGeZ-26">
          <mxGeometry relative="1" as="geometry">
            <mxPoint x="340" y="110" as="sourcePoint" />
            <mxPoint x="500" y="110" as="targetPoint" />
          </mxGeometry>
        </mxCell>
        <mxCell id="M6gMAkujk3P0K6vXCGeZ-28" value="Relationship" style="shape=rhombus;perimeter=rhombusPerimeter;whiteSpace=wrap;html=1;align=center;" vertex="1" parent="1">
          <mxGeometry x="390" y="50" width="120" height="60" as="geometry" />
        </mxCell>
        <mxCell id="M6gMAkujk3P0K6vXCGeZ-29" value="" style="edgeStyle=orthogonalEdgeStyle;fontSize=12;html=1;endArrow=ERmany;rounded=0;exitX=1;exitY=0.5;exitDx=0;exitDy=0;entryX=0;entryY=0.5;entryDx=0;entryDy=0;" edge="1" parent="1" source="M6gMAkujk3P0K6vXCGeZ-28" target="M6gMAkujk3P0K6vXCGeZ-4">
          <mxGeometry width="100" height="100" relative="1" as="geometry">
            <mxPoint x="440" y="160" as="sourcePoint" />
            <mxPoint x="540" y="60" as="targetPoint" />
          </mxGeometry>
        </mxCell>
        <mxCell id="M6gMAkujk3P0K6vXCGeZ-30" value="" style="edgeStyle=orthogonalEdgeStyle;fontSize=12;html=1;endArrow=ERone;endFill=1;rounded=0;exitX=0;exitY=0.5;exitDx=0;exitDy=0;entryX=1;entryY=0.5;entryDx=0;entryDy=0;" edge="1" parent="1" source="M6gMAkujk3P0K6vXCGeZ-28" target="M6gMAkujk3P0K6vXCGeZ-3">
          <mxGeometry width="100" height="100" relative="1" as="geometry">
            <mxPoint x="260" y="60" as="sourcePoint" />
            <mxPoint x="360" y="-40" as="targetPoint" />
          </mxGeometry>
        </mxCell>
        <mxCell id="M6gMAkujk3P0K6vXCGeZ-31" value="típus" style="ellipse;whiteSpace=wrap;html=1;align=center;" vertex="1" parent="1">
          <mxGeometry x="-240" y="-280" width="100" height="40" as="geometry" />
        </mxCell>
        <mxCell id="M6gMAkujk3P0K6vXCGeZ-32" value="rendszám" style="ellipse;whiteSpace=wrap;html=1;align=center;fontStyle=4;" vertex="1" parent="1">
          <mxGeometry x="-350" y="-280" width="100" height="40" as="geometry" />
        </mxCell>
        <mxCell id="M6gMAkujk3P0K6vXCGeZ-33" value="" style="endArrow=none;html=1;rounded=0;exitX=0.5;exitY=1;exitDx=0;exitDy=0;entryX=0;entryY=0;entryDx=0;entryDy=0;" edge="1" parent="1" source="M6gMAkujk3P0K6vXCGeZ-32" target="M6gMAkujk3P0K6vXCGeZ-4">
          <mxGeometry relative="1" as="geometry">
            <mxPoint x="230" y="10" as="sourcePoint" />
            <mxPoint x="390" y="10" as="targetPoint" />
          </mxGeometry>
        </mxCell>
        <mxCell id="M6gMAkujk3P0K6vXCGeZ-34" value="" style="endArrow=none;html=1;rounded=0;exitX=0.5;exitY=1;exitDx=0;exitDy=0;entryX=0.25;entryY=0;entryDx=0;entryDy=0;" edge="1" parent="1" source="M6gMAkujk3P0K6vXCGeZ-31" target="M6gMAkujk3P0K6vXCGeZ-4">
          <mxGeometry relative="1" as="geometry">
            <mxPoint x="230" y="10" as="sourcePoint" />
            <mxPoint x="390" y="10" as="targetPoint" />
          </mxGeometry>
        </mxCell>
        <mxCell id="M6gMAkujk3P0K6vXCGeZ-35" value="életkor" style="ellipse;whiteSpace=wrap;html=1;align=center;" vertex="1" parent="1">
          <mxGeometry x="500" y="-280" width="100" height="40" as="geometry" />
        </mxCell>
        <mxCell id="M6gMAkujk3P0K6vXCGeZ-36" value="ár" style="ellipse;whiteSpace=wrap;html=1;align=center;" vertex="1" parent="1">
          <mxGeometry x="400" y="300" width="100" height="40" as="geometry" />
        </mxCell>
        <mxCell id="M6gMAkujk3P0K6vXCGeZ-37" value="" style="endArrow=none;html=1;rounded=0;entryX=0.5;entryY=0;entryDx=0;entryDy=0;exitX=1;exitY=1;exitDx=0;exitDy=0;" edge="1" parent="1" source="M6gMAkujk3P0K6vXCGeZ-3" target="M6gMAkujk3P0K6vXCGeZ-36">
          <mxGeometry relative="1" as="geometry">
            <mxPoint x="230" y="10" as="sourcePoint" />
            <mxPoint x="390" y="10" as="targetPoint" />
          </mxGeometry>
        </mxCell>
        <mxCell id="M6gMAkujk3P0K6vXCGeZ-39" value="kedvezmény" style="ellipse;whiteSpace=wrap;html=1;align=center;" vertex="1" parent="1">
          <mxGeometry x="290" y="300" width="100" height="40" as="geometry" />
        </mxCell>
        <mxCell id="M6gMAkujk3P0K6vXCGeZ-40" value="útvonal" style="ellipse;whiteSpace=wrap;html=1;align=center;" vertex="1" parent="1">
          <mxGeometry x="-130" y="-280" width="100" height="40" as="geometry" />
        </mxCell>
        <mxCell id="M6gMAkujk3P0K6vXCGeZ-42" value="" style="endArrow=none;html=1;rounded=0;exitX=0.5;exitY=0;exitDx=0;exitDy=0;entryX=0.5;entryY=1;entryDx=0;entryDy=0;" edge="1" parent="1" source="M6gMAkujk3P0K6vXCGeZ-4" target="M6gMAkujk3P0K6vXCGeZ-40">
          <mxGeometry relative="1" as="geometry">
            <mxPoint x="230" y="10" as="sourcePoint" />
            <mxPoint x="390" y="10" as="targetPoint" />
          </mxGeometry>
        </mxCell>
        <mxCell id="M6gMAkujk3P0K6vXCGeZ-43" value="" style="endArrow=none;html=1;rounded=0;exitX=1;exitY=0;exitDx=0;exitDy=0;entryX=0.5;entryY=1;entryDx=0;entryDy=0;" edge="1" parent="1" source="M6gMAkujk3P0K6vXCGeZ-5" target="M6gMAkujk3P0K6vXCGeZ-35">
          <mxGeometry relative="1" as="geometry">
            <mxPoint x="230" y="110" as="sourcePoint" />
            <mxPoint x="390" y="110" as="targetPoint" />
          </mxGeometry>
        </mxCell>
      </root>
    </mxGraphModel>
  </diagram>
</mxfile>
